<svg width="14" height="14" viewBox="0 0 14 14" fill="none" xmlns="http://www.w3.org/2000/svg">
<path id="Vector - 0" fill-rule="evenodd" clip-rule="evenodd" d="M11.2424 13.6667C10.3297 13.6667 9.53477 12.2795 9.1212 10.23C8.70767 12.2795 7.91273 13.6667 7 13.6667C6.08727 13.6667 5.29233 12.2795 4.8788 10.23C4.46523 12.2795 3.6703 13.6667 2.75757 13.6667C1.4187 13.6667 0.333333 10.6819 0.333333 7C0.333333 3.3181 1.4187 0.333333 2.75757 0.333333C3.6703 0.333333 4.46523 1.72048 4.8788 3.77C5.29233 1.72048 6.08727 0.333333 7 0.333333C7.91273 0.333333 8.70767 1.72048 9.1212 3.77C9.53477 1.72048 10.3297 0.333333 11.2424 0.333333C12.5813 0.333333 13.6667 3.3181 13.6667 7C13.6667 10.6819 12.5813 13.6667 11.2424 13.6667Z" fill="white"/>
</svg>
